<?xml version="1.0" encoding="iso-8859-1"?>
<!-- Uploaded to: SVG Repo, www.svgrepo.com, Generator: SVG Repo Mixer Tools -->
<!DOCTYPE svg PUBLIC "-//W3C//DTD SVG 1.1//EN" "http://www.w3.org/Graphics/SVG/1.1/DTD/svg11.dtd">
<svg fill="#000000" version="1.1" id="Capa_1" xmlns="http://www.w3.org/2000/svg" xmlns:xlink="http://www.w3.org/1999/xlink" 
	 width="800px" height="800px" viewBox="0 0 32.75 32.75" xml:space="preserve"
	>
<g>
	<g>
		<path d="M29.375,1.25h-1.124c0.028-0.093,0.058-0.186,0.058-0.289C28.311,0.431,27.879,0,27.348,0s-0.961,0.431-0.961,0.961
			c0,0.103,0.028,0.196,0.059,0.289h-3.68c0.029-0.093,0.058-0.186,0.058-0.289C22.823,0.43,22.393,0,21.861,0
			C21.331,0,20.9,0.431,20.9,0.961c0,0.103,0.029,0.196,0.059,0.289h-3.68c0.029-0.093,0.058-0.186,0.058-0.289
			C17.336,0.431,16.906,0,16.375,0c-0.531,0-0.961,0.431-0.961,0.961c0,0.103,0.029,0.196,0.058,0.289h-3.68
			c0.029-0.093,0.058-0.186,0.058-0.289C11.85,0.431,11.419,0,10.888,0c-0.531,0-0.961,0.431-0.961,0.961
			c0,0.103,0.028,0.196,0.058,0.289h-3.68c0.03-0.093,0.058-0.186,0.058-0.289C6.363,0.43,5.933,0,5.402,0
			C4.871,0,4.441,0.431,4.441,0.961c0,0.103,0.029,0.196,0.058,0.289H3.375c-1.517,0-2.75,1.233-2.75,2.75v26
			c0,1.518,1.233,2.75,2.75,2.75H26.27l5.855-5.855V4C32.125,2.483,30.893,1.25,29.375,1.25z M30.625,26.273l-0.311,0.311h-2.356
			c-1.101,0-2,0.9-2,2v2.355l-0.31,0.311H3.375c-0.689,0-1.25-0.561-1.25-1.25V9h28.5V26.273z"/>
		<path d="M17.152,25.025c-0.129-2.7-0.455-6.149-1.236-9.413h-0.795c0.464,3.743,0.394,8.011,0.254,10.913
			c-0.711-1.949-1.799-4.401-3.318-6.461l-0.484,0.338c2.428,4.554,2.798,9.558,2.798,9.558h0.772h0.772h0.515h0.772h0.772
			c0,0,0.381-5.86,2.82-11.083l-0.482-0.423C18.855,20.516,17.839,22.936,17.152,25.025z"/>
		<polygon points="14.192,15.509 15.384,14.639 16.775,15.126 16.316,13.724 17.211,12.551 15.736,12.555 14.896,11.342 
			14.444,12.746 13.03,13.169 14.226,14.033 		"/>
		<polygon points="21.343,17.797 22.055,19.089 22.648,17.739 24.098,17.461 22.996,16.48 23.18,15.016 21.904,15.76 20.57,15.133 
			20.884,16.574 19.875,17.65 		"/>
		<polygon points="10.062,19.133 10.501,20.542 11.353,19.337 12.828,19.355 11.945,18.173 12.419,16.776 11.022,17.25 
			9.839,16.367 9.858,17.842 8.653,18.693 		"/>
	</g>
</g>
</svg>